<svg id="Capa_1" data-name="Capa 1" xmlns="http://www.w3.org/2000/svg" viewBox="0 0 500 500"><defs><style>.cls-1{fill:#1c1c1c;}.cls-2{fill:#1897c4;}.cls-3{fill:#fff;}</style></defs><rect class="cls-1" x="239.65" y="254.66" width="19.06" height="139.58" rx="9.53"/><path class="cls-2" d="M238,114.35s3.79-8.75,11.81-8.77a11.44,11.44,0,0,1,10,6L337.61,246.2c3.51,6.07.15,17-7.57,17H180.57c-4.78,0-11.11,1.09-15.22-1.76a12.13,12.13,0,0,1-4.52-12.91,19.81,19.81,0,0,1,2.33-4.44c.19-.29.36-.58.53-.88.51-.84,1-1.68,1.5-2.52q2.31-3.92,4.58-7.85c2.12-3.64,4.23-7.27,6.34-10.92l7.63-13.2L192.23,194l8.89-15.43L210,163.14l8.37-14.54,7.42-12.92q3-5.25,6-10.51l4.21-7.33,1.93-3.36Z"/><path class="cls-3" d="M317.23,236,257.75,133.12a8.79,8.79,0,0,0-16.07,0L182.21,236s-4,5.62-.8,10.85c0,0,2.81,3.61,5.62,4H312.4c2.82-.41,5.63-4,5.63-4C321.24,241.61,317.23,236,317.23,236Z"/></svg>